<?xml version="1.0" encoding="UTF-8" standalone="no"?>
<!DOCTYPE svg PUBLIC "-//W3C//DTD SVG 1.1//EN"
 "http://www.w3.org/Graphics/SVG/1.1/DTD/svg11.dtd">
<!-- Generated by graphviz version 2.40.1 (20161225.0304)
 -->
<!-- Title: %3 Pages: 1 -->
<svg width="591pt" height="476pt"
 viewBox="0.00 0.00 591.43 476.00" xmlns="http://www.w3.org/2000/svg" xmlns:xlink="http://www.w3.org/1999/xlink">
<g id="graph0" class="graph" transform="scale(1 1) rotate(0) translate(4 472)">
<title>%3</title>
<polygon fill="#ffffff" stroke="transparent" points="-4,4 -4,-472 587.4331,-472 587.4331,4 -4,4"/>
<!-- inputnode (utility) -->
<g id="node1" class="node">
<title>inputnode (utility)</title>
<ellipse fill="none" stroke="#000000" cx="394.8414" cy="-450" rx="94.7833" ry="18"/>
<text text-anchor="middle" x="394.8414" y="-446.3" font-family="Times,serif" font-size="14.00" fill="#000000">inputnode (utility)</text>
</g>
<!-- flatten (utils) -->
<g id="node2" class="node">
<title>flatten (utils)</title>
<ellipse fill="none" stroke="#000000" cx="394.8414" cy="-378" rx="71.4873" ry="18"/>
<text text-anchor="middle" x="394.8414" y="-374.3" font-family="Times,serif" font-size="14.00" fill="#000000">flatten (utils)</text>
</g>
<!-- inputnode (utility)&#45;&gt;flatten (utils) -->
<g id="edge1" class="edge">
<title>inputnode (utility)&#45;&gt;flatten (utils)</title>
<path fill="none" stroke="#000000" d="M394.8414,-431.8314C394.8414,-424.131 394.8414,-414.9743 394.8414,-406.4166"/>
<polygon fill="#000000" stroke="#000000" points="398.3415,-406.4132 394.8414,-396.4133 391.3415,-406.4133 398.3415,-406.4132"/>
</g>
<!-- readout_time (epi) -->
<g id="node3" class="node">
<title>readout_time (epi)</title>
<ellipse fill="none" stroke="#000000" cx="96.8414" cy="-306" rx="96.6831" ry="18"/>
<text text-anchor="middle" x="96.8414" y="-302.3" font-family="Times,serif" font-size="14.00" fill="#000000">readout_time (epi)</text>
</g>
<!-- flatten (utils)&#45;&gt;readout_time (epi) -->
<g id="edge2" class="edge">
<title>flatten (utils)&#45;&gt;readout_time (epi)</title>
<path fill="none" stroke="#000000" d="M342.9338,-365.4586C293.876,-353.6057 219.9463,-335.7435 165.9236,-322.691"/>
<polygon fill="#000000" stroke="#000000" points="166.6208,-319.2588 156.0785,-320.3123 164.9768,-326.063 166.6208,-319.2588"/>
</g>
<!-- concat_blips (nibabel) -->
<g id="node4" class="node">
<title>concat_blips (nibabel)</title>
<ellipse fill="none" stroke="#000000" cx="324.8414" cy="-306" rx="113.18" ry="18"/>
<text text-anchor="middle" x="324.8414" y="-302.3" font-family="Times,serif" font-size="14.00" fill="#000000">concat_blips (nibabel)</text>
</g>
<!-- flatten (utils)&#45;&gt;concat_blips (nibabel) -->
<g id="edge3" class="edge">
<title>flatten (utils)&#45;&gt;concat_blips (nibabel)</title>
<path fill="none" stroke="#000000" d="M377.538,-360.2022C369.0403,-351.4617 358.6539,-340.7786 349.3554,-331.2144"/>
<polygon fill="#000000" stroke="#000000" points="351.6686,-328.5727 342.1883,-323.8425 346.6496,-333.4523 351.6686,-328.5727"/>
</g>
<!-- topup (fsl) -->
<g id="node5" class="node">
<title>topup (fsl)</title>
<ellipse fill="none" stroke="#000000" cx="352.8414" cy="-234" rx="58.4896" ry="18"/>
<text text-anchor="middle" x="352.8414" y="-230.3" font-family="Times,serif" font-size="14.00" fill="#000000">topup (fsl)</text>
</g>
<!-- flatten (utils)&#45;&gt;topup (fsl) -->
<g id="edge4" class="edge">
<title>flatten (utils)&#45;&gt;topup (fsl)</title>
<path fill="none" stroke="#000000" d="M418.059,-360.9725C429.0133,-351.4682 440.9523,-338.6056 446.8414,-324 452.8246,-309.1608 454.8564,-301.8477 446.8414,-288 437.2161,-271.37 420.3178,-259.4158 403.4784,-251.0529"/>
<polygon fill="#000000" stroke="#000000" points="404.723,-247.7728 394.1758,-246.7694 401.7952,-254.1312 404.723,-247.7728"/>
</g>
<!-- fix_coeff (bspline) -->
<g id="node6" class="node">
<title>fix_coeff (bspline)</title>
<ellipse fill="none" stroke="#000000" cx="489.8414" cy="-162" rx="93.6835" ry="18"/>
<text text-anchor="middle" x="489.8414" y="-158.3" font-family="Times,serif" font-size="14.00" fill="#000000">fix_coeff (bspline)</text>
</g>
<!-- flatten (utils)&#45;&gt;fix_coeff (bspline) -->
<g id="edge5" class="edge">
<title>flatten (utils)&#45;&gt;fix_coeff (bspline)</title>
<path fill="none" stroke="#000000" d="M424.5977,-361.4369C438.4016,-352.2116 453.7353,-339.4565 462.8414,-324 487.3939,-282.3252 491.2627,-224.7459 491.0789,-190.6406"/>
<polygon fill="#000000" stroke="#000000" points="494.5749,-190.3785 490.8978,-180.4423 487.576,-190.5028 494.5749,-190.3785"/>
</g>
<!-- readout_time (epi)&#45;&gt;topup (fsl) -->
<g id="edge6" class="edge">
<title>readout_time (epi)&#45;&gt;topup (fsl)</title>
<path fill="none" stroke="#000000" d="M150.5074,-290.9064C194.3061,-278.5881 255.8746,-261.2719 299.5669,-248.9835"/>
<polygon fill="#000000" stroke="#000000" points="300.756,-252.2849 309.4349,-246.2081 298.8607,-245.5463 300.756,-252.2849"/>
</g>
<!-- concat_blips (nibabel)&#45;&gt;topup (fsl) -->
<g id="edge7" class="edge">
<title>concat_blips (nibabel)&#45;&gt;topup (fsl)</title>
<path fill="none" stroke="#000000" d="M331.907,-287.8314C335.0145,-279.8406 338.7318,-270.2819 342.1659,-261.4514"/>
<polygon fill="#000000" stroke="#000000" points="345.5126,-262.502 345.8751,-251.9134 338.9885,-259.9649 345.5126,-262.502"/>
</g>
<!-- topup (fsl)&#45;&gt;fix_coeff (bspline) -->
<g id="edge8" class="edge">
<title>topup (fsl)&#45;&gt;fix_coeff (bspline)</title>
<path fill="none" stroke="#000000" d="M382.5684,-218.3771C401.763,-208.2894 427.0141,-195.0188 448.1952,-183.887"/>
<polygon fill="#000000" stroke="#000000" points="450.0746,-186.8533 457.2983,-179.1029 446.8181,-180.6569 450.0746,-186.8533"/>
</g>
<!-- merge_corrected (images) -->
<g id="node7" class="node">
<title>merge_corrected (images)</title>
<ellipse fill="none" stroke="#000000" cx="205.8414" cy="-162" rx="133.7763" ry="18"/>
<text text-anchor="middle" x="205.8414" y="-158.3" font-family="Times,serif" font-size="14.00" fill="#000000">merge_corrected (images)</text>
</g>
<!-- topup (fsl)&#45;&gt;merge_corrected (images) -->
<g id="edge9" class="edge">
<title>topup (fsl)&#45;&gt;merge_corrected (images)</title>
<path fill="none" stroke="#000000" d="M321.6665,-218.7307C301.0002,-208.6084 273.5617,-195.1691 250.5783,-183.9119"/>
<polygon fill="#000000" stroke="#000000" points="251.8818,-180.6531 241.3616,-179.3976 248.8026,-186.9396 251.8818,-180.6531"/>
</g>
<!-- outputnode (utility) -->
<g id="node8" class="node">
<title>outputnode (utility)</title>
<ellipse fill="none" stroke="#000000" cx="348.8414" cy="-18" rx="101.2821" ry="18"/>
<text text-anchor="middle" x="348.8414" y="-14.3" font-family="Times,serif" font-size="14.00" fill="#000000">outputnode (utility)</text>
</g>
<!-- topup (fsl)&#45;&gt;outputnode (utility) -->
<g id="edge10" class="edge">
<title>topup (fsl)&#45;&gt;outputnode (utility)</title>
<path fill="none" stroke="#000000" d="M352.5072,-215.9555C351.8117,-178.3938 350.2035,-91.5541 349.3675,-46.4103"/>
<polygon fill="#000000" stroke="#000000" points="352.8621,-46.0785 349.1774,-36.1451 345.8633,-46.2082 352.8621,-46.0785"/>
</g>
<!-- fix_coeff (bspline)&#45;&gt;outputnode (utility) -->
<g id="edge11" class="edge">
<title>fix_coeff (bspline)&#45;&gt;outputnode (utility)</title>
<path fill="none" stroke="#000000" d="M472.2688,-144.0535C447.4658,-118.7228 402.0662,-72.3572 373.7813,-43.4706"/>
<polygon fill="#000000" stroke="#000000" points="376.1326,-40.8691 366.6355,-36.1727 371.131,-45.7665 376.1326,-40.8691"/>
</g>
<!-- merge_corrected (images)&#45;&gt;outputnode (utility) -->
<g id="edge13" class="edge">
<title>merge_corrected (images)&#45;&gt;outputnode (utility)</title>
<path fill="none" stroke="#000000" d="M254.9176,-145.2394C274.3592,-136.6059 295.6497,-124.3842 310.8414,-108 326.9702,-90.6051 336.8179,-65.3534 342.4335,-46.022"/>
<polygon fill="#000000" stroke="#000000" points="345.8436,-46.8187 345.0631,-36.2527 339.0841,-44.9993 345.8436,-46.8187"/>
</g>
<!-- brainextraction_wf -->
<g id="node9" class="node">
<title>brainextraction_wf</title>
<ellipse fill="none" stroke="#000000" cx="202.8414" cy="-90" rx="98.5829" ry="18"/>
<text text-anchor="middle" x="202.8414" y="-86.3" font-family="Times,serif" font-size="14.00" fill="#000000">brainextraction_wf</text>
</g>
<!-- merge_corrected (images)&#45;&gt;brainextraction_wf -->
<g id="edge12" class="edge">
<title>merge_corrected (images)&#45;&gt;brainextraction_wf</title>
<path fill="none" stroke="#000000" d="M205.0844,-143.8314C204.7635,-136.131 204.382,-126.9743 204.0254,-118.4166"/>
<polygon fill="#000000" stroke="#000000" points="207.522,-118.2589 203.6086,-108.4133 200.5281,-118.5503 207.522,-118.2589"/>
</g>
<!-- brainextraction_wf&#45;&gt;outputnode (utility) -->
<g id="edge14" class="edge">
<title>brainextraction_wf&#45;&gt;outputnode (utility)</title>
<path fill="none" stroke="#000000" d="M237.4414,-72.937C257.8058,-62.8943 283.7437,-50.103 305.4666,-39.3903"/>
<polygon fill="#000000" stroke="#000000" points="307.0691,-42.5025 314.4898,-34.9405 303.973,-36.2244 307.0691,-42.5025"/>
</g>
</g>
</svg>
