<?xml version="1.0" encoding="UTF-8" standalone="no"?>
<!DOCTYPE svg PUBLIC "-//W3C//DTD SVG 1.1//EN"
 "http://www.w3.org/Graphics/SVG/1.1/DTD/svg11.dtd">
<!-- Generated by graphviz version 2.40.1 (20161225.0304)
 -->
<!-- Title: %3 Pages: 1 -->
<svg width="630pt" height="476pt"
 viewBox="0.00 0.00 630.43 476.00" xmlns="http://www.w3.org/2000/svg" xmlns:xlink="http://www.w3.org/1999/xlink">
<g id="graph0" class="graph" transform="scale(1 1) rotate(0) translate(4 472)">
<title>%3</title>
<polygon fill="#ffffff" stroke="transparent" points="-4,4 -4,-472 626.4331,-472 626.4331,4 -4,4"/>
<!-- inputnode (utility) -->
<g id="node1" class="node">
<title>inputnode (utility)</title>
<ellipse fill="none" stroke="#000000" cx="394.8414" cy="-450" rx="94.7833" ry="18"/>
<text text-anchor="middle" x="394.8414" y="-446.3" font-family="Times,serif" font-size="14.00" fill="#000000">inputnode (utility)</text>
</g>
<!-- flatten (utils) -->
<g id="node2" class="node">
<title>flatten (utils)</title>
<ellipse fill="none" stroke="#000000" cx="394.8414" cy="-378" rx="71.4873" ry="18"/>
<text text-anchor="middle" x="394.8414" y="-374.3" font-family="Times,serif" font-size="14.00" fill="#000000">flatten (utils)</text>
</g>
<!-- inputnode (utility)&#45;&gt;flatten (utils) -->
<g id="edge1" class="edge">
<title>inputnode (utility)&#45;&gt;flatten (utils)</title>
<path fill="none" stroke="#000000" d="M394.8414,-431.8314C394.8414,-424.131 394.8414,-414.9743 394.8414,-406.4166"/>
<polygon fill="#000000" stroke="#000000" points="398.3415,-406.4132 394.8414,-396.4133 391.3415,-406.4133 398.3415,-406.4132"/>
</g>
<!-- readout_time (epi) -->
<g id="node3" class="node">
<title>readout_time (epi)</title>
<ellipse fill="none" stroke="#000000" cx="96.8414" cy="-306" rx="96.6831" ry="18"/>
<text text-anchor="middle" x="96.8414" y="-302.3" font-family="Times,serif" font-size="14.00" fill="#000000">readout_time (epi)</text>
</g>
<!-- flatten (utils)&#45;&gt;readout_time (epi) -->
<g id="edge2" class="edge">
<title>flatten (utils)&#45;&gt;readout_time (epi)</title>
<path fill="none" stroke="#000000" d="M342.9338,-365.4586C293.876,-353.6057 219.9463,-335.7435 165.9236,-322.691"/>
<polygon fill="#000000" stroke="#000000" points="166.6208,-319.2588 156.0785,-320.3123 164.9768,-326.063 166.6208,-319.2588"/>
</g>
<!-- concat_blips (nibabel) -->
<g id="node4" class="node">
<title>concat_blips (nibabel)</title>
<ellipse fill="none" stroke="#000000" cx="324.8414" cy="-306" rx="113.18" ry="18"/>
<text text-anchor="middle" x="324.8414" y="-302.3" font-family="Times,serif" font-size="14.00" fill="#000000">concat_blips (nibabel)</text>
</g>
<!-- flatten (utils)&#45;&gt;concat_blips (nibabel) -->
<g id="edge3" class="edge">
<title>flatten (utils)&#45;&gt;concat_blips (nibabel)</title>
<path fill="none" stroke="#000000" d="M377.538,-360.2022C369.0403,-351.4617 358.6539,-340.7786 349.3554,-331.2144"/>
<polygon fill="#000000" stroke="#000000" points="351.6686,-328.5727 342.1883,-323.8425 346.6496,-333.4523 351.6686,-328.5727"/>
</g>
<!-- topup (fsl) -->
<g id="node5" class="node">
<title>topup (fsl)</title>
<ellipse fill="none" stroke="#000000" cx="291.8414" cy="-234" rx="58.4896" ry="18"/>
<text text-anchor="middle" x="291.8414" y="-230.3" font-family="Times,serif" font-size="14.00" fill="#000000">topup (fsl)</text>
</g>
<!-- flatten (utils)&#45;&gt;topup (fsl) -->
<g id="edge4" class="edge">
<title>flatten (utils)&#45;&gt;topup (fsl)</title>
<path fill="none" stroke="#000000" d="M416.8036,-360.8309C437.8214,-342.2756 463.9834,-312.1246 446.8414,-288 435.125,-271.511 388.7345,-256.7032 349.7313,-246.7829"/>
<polygon fill="#000000" stroke="#000000" points="350.5486,-243.3797 340,-244.3681 348.8626,-250.1736 350.5486,-243.3797"/>
</g>
<!-- fix_coeff (bspline) -->
<g id="node6" class="node">
<title>fix_coeff (bspline)</title>
<ellipse fill="none" stroke="#000000" cx="528.8414" cy="-162" rx="93.6835" ry="18"/>
<text text-anchor="middle" x="528.8414" y="-158.3" font-family="Times,serif" font-size="14.00" fill="#000000">fix_coeff (bspline)</text>
</g>
<!-- flatten (utils)&#45;&gt;fix_coeff (bspline) -->
<g id="edge5" class="edge">
<title>flatten (utils)&#45;&gt;fix_coeff (bspline)</title>
<path fill="none" stroke="#000000" d="M422.1628,-361.1989C435.8491,-351.6699 451.8098,-338.716 462.8414,-324 494.0419,-282.3787 513.0369,-223.9328 522.1921,-189.8078"/>
<polygon fill="#000000" stroke="#000000" points="525.6019,-190.6016 524.7201,-180.0436 518.8253,-188.8471 525.6019,-190.6016"/>
</g>
<!-- readout_time (epi)&#45;&gt;topup (fsl) -->
<g id="edge6" class="edge">
<title>readout_time (epi)&#45;&gt;topup (fsl)</title>
<path fill="none" stroke="#000000" d="M140.6032,-289.8418C171.5391,-278.4193 212.9716,-263.1211 244.6475,-251.4254"/>
<polygon fill="#000000" stroke="#000000" points="245.9737,-254.6668 254.1423,-247.9197 243.549,-248.1001 245.9737,-254.6668"/>
</g>
<!-- concat_blips (nibabel)&#45;&gt;topup (fsl) -->
<g id="edge7" class="edge">
<title>concat_blips (nibabel)&#45;&gt;topup (fsl)</title>
<path fill="none" stroke="#000000" d="M316.5141,-287.8314C312.8123,-279.7547 308.3763,-270.0761 304.2929,-261.1668"/>
<polygon fill="#000000" stroke="#000000" points="307.4001,-259.5458 300.0517,-251.9134 301.0366,-262.4624 307.4001,-259.5458"/>
</g>
<!-- topup (fsl)&#45;&gt;fix_coeff (bspline) -->
<g id="edge8" class="edge">
<title>topup (fsl)&#45;&gt;fix_coeff (bspline)</title>
<path fill="none" stroke="#000000" d="M333.6667,-221.2936C371.1449,-209.9078 426.5553,-193.0743 468.7703,-180.2494"/>
<polygon fill="#000000" stroke="#000000" points="469.8296,-183.5857 478.3804,-177.3299 467.7948,-176.8879 469.8296,-183.5857"/>
</g>
<!-- outputnode (utility) -->
<g id="node7" class="node">
<title>outputnode (utility)</title>
<ellipse fill="none" stroke="#000000" cx="328.8414" cy="-18" rx="101.2821" ry="18"/>
<text text-anchor="middle" x="328.8414" y="-14.3" font-family="Times,serif" font-size="14.00" fill="#000000">outputnode (utility)</text>
</g>
<!-- topup (fsl)&#45;&gt;outputnode (utility) -->
<g id="edge9" class="edge">
<title>topup (fsl)&#45;&gt;outputnode (utility)</title>
<path fill="none" stroke="#000000" d="M244.5226,-223.3632C204.9846,-213.4037 153.1468,-197.4692 140.8414,-180 131.6274,-166.9194 138.9906,-159.8926 140.8414,-144 144.6447,-111.3408 135.4679,-96.0939 157.8414,-72 171.3167,-57.4885 213.6287,-44.0642 252.7889,-34.2303"/>
<polygon fill="#000000" stroke="#000000" points="253.7795,-37.5911 262.6575,-31.809 252.1115,-30.7927 253.7795,-37.5911"/>
</g>
<!-- merge_corrected (images) -->
<g id="node8" class="node">
<title>merge_corrected (images)</title>
<ellipse fill="none" stroke="#000000" cx="283.8414" cy="-162" rx="133.7763" ry="18"/>
<text text-anchor="middle" x="283.8414" y="-158.3" font-family="Times,serif" font-size="14.00" fill="#000000">merge_corrected (images)</text>
</g>
<!-- topup (fsl)&#45;&gt;merge_corrected (images) -->
<g id="edge10" class="edge">
<title>topup (fsl)&#45;&gt;merge_corrected (images)</title>
<path fill="none" stroke="#000000" d="M289.8227,-215.8314C288.9671,-208.131 287.9497,-198.9743 286.9988,-190.4166"/>
<polygon fill="#000000" stroke="#000000" points="290.4703,-189.9656 285.8873,-180.4133 283.5131,-190.7386 290.4703,-189.9656"/>
</g>
<!-- fix_coeff (bspline)&#45;&gt;outputnode (utility) -->
<g id="edge11" class="edge">
<title>fix_coeff (bspline)&#45;&gt;outputnode (utility)</title>
<path fill="none" stroke="#000000" d="M504.3175,-144.3428C468.4589,-118.5246 401.6445,-70.4182 361.6101,-41.5934"/>
<polygon fill="#000000" stroke="#000000" points="363.4132,-38.5789 353.2528,-35.5762 359.3231,-44.2597 363.4132,-38.5789"/>
</g>
<!-- merge_corrected (images)&#45;&gt;outputnode (utility) -->
<g id="edge13" class="edge">
<title>merge_corrected (images)&#45;&gt;outputnode (utility)</title>
<path fill="none" stroke="#000000" d="M331.4744,-144.9362C347.9003,-136.4949 364.5045,-124.4908 373.8414,-108 385.8584,-86.7757 371.383,-61.9325 355.7377,-43.7307"/>
<polygon fill="#000000" stroke="#000000" points="357.8869,-40.894 348.558,-35.8719 352.7189,-45.6155 357.8869,-40.894"/>
</g>
<!-- brainextraction_wf -->
<g id="node9" class="node">
<title>brainextraction_wf</title>
<ellipse fill="none" stroke="#000000" cx="265.8414" cy="-90" rx="98.5829" ry="18"/>
<text text-anchor="middle" x="265.8414" y="-86.3" font-family="Times,serif" font-size="14.00" fill="#000000">brainextraction_wf</text>
</g>
<!-- merge_corrected (images)&#45;&gt;brainextraction_wf -->
<g id="edge12" class="edge">
<title>merge_corrected (images)&#45;&gt;brainextraction_wf</title>
<path fill="none" stroke="#000000" d="M279.2992,-143.8314C277.353,-136.0463 275.0346,-126.7729 272.8751,-118.1347"/>
<polygon fill="#000000" stroke="#000000" points="276.2657,-117.2658 270.4447,-108.4133 269.4747,-118.9636 276.2657,-117.2658"/>
</g>
<!-- brainextraction_wf&#45;&gt;outputnode (utility) -->
<g id="edge14" class="edge">
<title>brainextraction_wf&#45;&gt;outputnode (utility)</title>
<path fill="none" stroke="#000000" d="M281.4144,-72.2022C288.9867,-63.5483 298.2252,-52.99 306.5299,-43.4988"/>
<polygon fill="#000000" stroke="#000000" points="309.2781,-45.6731 313.2292,-35.8425 304.0101,-41.0636 309.2781,-45.6731"/>
</g>
</g>
</svg>
