<?xml version="1.0" encoding="UTF-8" standalone="no"?>
<!DOCTYPE svg PUBLIC "-//W3C//DTD SVG 1.1//EN"
 "http://www.w3.org/Graphics/SVG/1.1/DTD/svg11.dtd">
<!-- Generated by graphviz version 2.40.1 (20161225.0304)
 -->
<!-- Title: structs Pages: 1 -->
<svg width="945pt" height="944pt"
 viewBox="0.00 0.00 945.35 944.00" xmlns="http://www.w3.org/2000/svg" xmlns:xlink="http://www.w3.org/1999/xlink">
<g id="graph0" class="graph" transform="scale(1 1) rotate(0) translate(4 940)">
<title>structs</title>
<polygon fill="#ffffff" stroke="transparent" points="-4,4 -4,-940 941.3471,-940 941.3471,4 -4,4"/>
<!-- pepolar_estimate_wfinputnode -->
<g id="node1" class="node">
<title>pepolar_estimate_wfinputnode</title>
<polygon fill="none" stroke="#000000" points="16.9679,-866.5 16.9679,-935.5 224.9679,-935.5 224.9679,-866.5 16.9679,-866.5"/>
<text text-anchor="middle" x="34.4679" y="-897.3" font-family="Times,serif" font-size="14.00" fill="#000000">IN</text>
<polyline fill="none" stroke="#000000" points="51.9679,-866.5 51.9679,-935.5 "/>
<text text-anchor="middle" x="96.4679" y="-920.3" font-family="Times,serif" font-size="14.00" fill="#000000">inputnode</text>
<polyline fill="none" stroke="#000000" points="51.9679,-912.5 140.9679,-912.5 "/>
<text text-anchor="middle" x="96.4679" y="-897.3" font-family="Times,serif" font-size="14.00" fill="#000000">utility</text>
<polyline fill="none" stroke="#000000" points="51.9679,-889.5 140.9679,-889.5 "/>
<text text-anchor="middle" x="96.4679" y="-874.3" font-family="Times,serif" font-size="14.00" fill="#000000"> </text>
<polyline fill="none" stroke="#000000" points="140.9679,-866.5 140.9679,-935.5 "/>
<text text-anchor="middle" x="182.9679" y="-920.3" font-family="Times,serif" font-size="14.00" fill="#000000">OUT</text>
<polyline fill="none" stroke="#000000" points="140.9679,-912.5 224.9679,-912.5 "/>
<text text-anchor="middle" x="182.9679" y="-897.3" font-family="Times,serif" font-size="14.00" fill="#000000">in_data</text>
<polyline fill="none" stroke="#000000" points="140.9679,-889.5 224.9679,-889.5 "/>
<text text-anchor="middle" x="182.9679" y="-874.3" font-family="Times,serif" font-size="14.00" fill="#000000">metadata</text>
</g>
<!-- pepolar_estimate_wfflatten -->
<g id="node2" class="node">
<title>pepolar_estimate_wfflatten</title>
<polygon fill="none" stroke="#000000" points="225.4679,-760.5 225.4679,-829.5 446.4679,-829.5 446.4679,-760.5 225.4679,-760.5"/>
<text text-anchor="middle" x="262.4679" y="-814.3" font-family="Times,serif" font-size="14.00" fill="#000000">IN</text>
<polyline fill="none" stroke="#000000" points="225.4679,-806.5 299.4679,-806.5 "/>
<text text-anchor="middle" x="262.4679" y="-791.3" font-family="Times,serif" font-size="14.00" fill="#000000">in_data</text>
<polyline fill="none" stroke="#000000" points="225.4679,-783.5 299.4679,-783.5 "/>
<text text-anchor="middle" x="262.4679" y="-768.3" font-family="Times,serif" font-size="14.00" fill="#000000">in_meta</text>
<polyline fill="none" stroke="#000000" points="299.4679,-760.5 299.4679,-829.5 "/>
<text text-anchor="middle" x="331.4679" y="-814.3" font-family="Times,serif" font-size="14.00" fill="#000000">flatten</text>
<polyline fill="none" stroke="#000000" points="299.4679,-806.5 363.4679,-806.5 "/>
<text text-anchor="middle" x="331.4679" y="-791.3" font-family="Times,serif" font-size="14.00" fill="#000000">utils</text>
<polyline fill="none" stroke="#000000" points="299.4679,-783.5 363.4679,-783.5 "/>
<text text-anchor="middle" x="331.4679" y="-768.3" font-family="Times,serif" font-size="14.00" fill="#000000"> </text>
<polyline fill="none" stroke="#000000" points="363.4679,-760.5 363.4679,-829.5 "/>
<text text-anchor="middle" x="404.9679" y="-814.3" font-family="Times,serif" font-size="14.00" fill="#000000">OUT</text>
<polyline fill="none" stroke="#000000" points="363.4679,-806.5 446.4679,-806.5 "/>
<text text-anchor="middle" x="404.9679" y="-791.3" font-family="Times,serif" font-size="14.00" fill="#000000">out_data</text>
<polyline fill="none" stroke="#000000" points="363.4679,-783.5 446.4679,-783.5 "/>
<text text-anchor="middle" x="404.9679" y="-768.3" font-family="Times,serif" font-size="14.00" fill="#000000">out_meta</text>
</g>
<!-- pepolar_estimate_wfinputnode&#45;&gt;pepolar_estimate_wfflatten -->
<g id="edge10" class="edge">
<title>pepolar_estimate_wfinputnode:e&#45;&gt;pepolar_estimate_wfflatten:w</title>
<path fill="none" stroke="#000000" d="M224.9679,-901C267.6624,-901 194.2813,-813.9434 215.2116,-797.6202"/>
<polygon fill="#000000" stroke="#000000" points="216.218,-800.9741 224.9679,-795 214.4023,-794.2136 216.218,-800.9741"/>
</g>
<!-- pepolar_estimate_wfinputnode&#45;&gt;pepolar_estimate_wfflatten -->
<g id="edge11" class="edge">
<title>pepolar_estimate_wfinputnode:e&#45;&gt;pepolar_estimate_wfflatten:w</title>
<path fill="none" stroke="#000000" d="M224.9679,-878C224.9679,-878 224.9679,-808.6947 224.9679,-782.1637"/>
<polygon fill="#000000" stroke="#000000" points="228.468,-782 224.9679,-772 221.468,-782 228.468,-782"/>
</g>
<!-- pepolar_estimate_wfconcat_blips -->
<g id="node3" class="node">
<title>pepolar_estimate_wfconcat_blips</title>
<polygon fill="none" stroke="#000000" points="15.4679,-654.5 15.4679,-723.5 260.4679,-723.5 260.4679,-654.5 15.4679,-654.5"/>
<text text-anchor="middle" x="49.4679" y="-702.8" font-family="Times,serif" font-size="14.00" fill="#000000">IN</text>
<polyline fill="none" stroke="#000000" points="15.4679,-689.5 83.4679,-689.5 "/>
<text text-anchor="middle" x="49.4679" y="-668.3" font-family="Times,serif" font-size="14.00" fill="#000000">in_files</text>
<polyline fill="none" stroke="#000000" points="83.4679,-654.5 83.4679,-723.5 "/>
<text text-anchor="middle" x="136.9679" y="-708.3" font-family="Times,serif" font-size="14.00" fill="#000000">concat_blips</text>
<polyline fill="none" stroke="#000000" points="83.4679,-700.5 190.4679,-700.5 "/>
<text text-anchor="middle" x="136.9679" y="-685.3" font-family="Times,serif" font-size="14.00" fill="#000000">nibabel</text>
<polyline fill="none" stroke="#000000" points="83.4679,-677.5 190.4679,-677.5 "/>
<text text-anchor="middle" x="136.9679" y="-662.3" font-family="Times,serif" font-size="14.00" fill="#000000"> </text>
<polyline fill="none" stroke="#000000" points="190.4679,-654.5 190.4679,-723.5 "/>
<text text-anchor="middle" x="225.4679" y="-702.8" font-family="Times,serif" font-size="14.00" fill="#000000">OUT</text>
<polyline fill="none" stroke="#000000" points="190.4679,-689.5 260.4679,-689.5 "/>
<text text-anchor="middle" x="225.4679" y="-668.3" font-family="Times,serif" font-size="14.00" fill="#000000">out_file</text>
</g>
<!-- pepolar_estimate_wfflatten&#45;&gt;pepolar_estimate_wfconcat_blips -->
<g id="edge4" class="edge">
<title>pepolar_estimate_wfflatten:e&#45;&gt;pepolar_estimate_wfconcat_blips:w</title>
<path fill="none" stroke="#000000" d="M446.9679,-795C462.5235,-795 457.5008,-771.4471 446.9679,-760 381.7401,-689.1104 80.1958,-794.8896 14.9679,-724 2.1311,-710.0489 -5.1971,-683.9949 5.3412,-675.0821"/>
<polygon fill="#000000" stroke="#000000" points="6.5114,-678.3826 14.9679,-672 4.3769,-671.7159 6.5114,-678.3826"/>
</g>
<!-- pepolar_estimate_wfreadout_time -->
<g id="node4" class="node">
<title>pepolar_estimate_wfreadout_time</title>
<polygon fill="none" stroke="#000000" points="278.9679,-654.5 278.9679,-723.5 586.9679,-723.5 586.9679,-654.5 278.9679,-654.5"/>
<text text-anchor="middle" x="320.9679" y="-708.3" font-family="Times,serif" font-size="14.00" fill="#000000">IN</text>
<polyline fill="none" stroke="#000000" points="278.9679,-700.5 362.9679,-700.5 "/>
<text text-anchor="middle" x="320.9679" y="-685.3" font-family="Times,serif" font-size="14.00" fill="#000000">in_file</text>
<polyline fill="none" stroke="#000000" points="278.9679,-677.5 362.9679,-677.5 "/>
<text text-anchor="middle" x="320.9679" y="-662.3" font-family="Times,serif" font-size="14.00" fill="#000000">metadata</text>
<polyline fill="none" stroke="#000000" points="362.9679,-654.5 362.9679,-723.5 "/>
<text text-anchor="middle" x="418.9679" y="-708.3" font-family="Times,serif" font-size="14.00" fill="#000000">readout_time</text>
<polyline fill="none" stroke="#000000" points="362.9679,-700.5 474.9679,-700.5 "/>
<text text-anchor="middle" x="418.9679" y="-685.3" font-family="Times,serif" font-size="14.00" fill="#000000">epi</text>
<polyline fill="none" stroke="#000000" points="362.9679,-677.5 474.9679,-677.5 "/>
<text text-anchor="middle" x="418.9679" y="-662.3" font-family="Times,serif" font-size="14.00" fill="#000000"> </text>
<polyline fill="none" stroke="#000000" points="474.9679,-654.5 474.9679,-723.5 "/>
<text text-anchor="middle" x="530.9679" y="-702.8" font-family="Times,serif" font-size="14.00" fill="#000000">OUT</text>
<polyline fill="none" stroke="#000000" points="474.9679,-689.5 586.9679,-689.5 "/>
<text text-anchor="middle" x="530.9679" y="-668.3" font-family="Times,serif" font-size="14.00" fill="#000000">readout_time</text>
</g>
<!-- pepolar_estimate_wfflatten&#45;&gt;pepolar_estimate_wfreadout_time -->
<g id="edge6" class="edge">
<title>pepolar_estimate_wfflatten:e&#45;&gt;pepolar_estimate_wfreadout_time:w</title>
<path fill="none" stroke="#000000" d="M446.9679,-795C462.5235,-795 456.7474,-772.097 446.9679,-760 398.9611,-700.6161 326.9748,-783.3839 278.9679,-724 272.0918,-715.4943 267.1948,-701.6463 270.3006,-694.1737"/>
<polygon fill="#000000" stroke="#000000" points="272.1752,-697.1308 278.9679,-689 268.5874,-691.1202 272.1752,-697.1308"/>
</g>
<!-- pepolar_estimate_wfflatten&#45;&gt;pepolar_estimate_wfreadout_time -->
<g id="edge8" class="edge">
<title>pepolar_estimate_wfflatten:e&#45;&gt;pepolar_estimate_wfreadout_time:w</title>
<path fill="none" stroke="#000000" d="M446.9679,-772C452.3013,-772 450.3209,-764.1476 446.9679,-760 398.9611,-700.6161 326.9748,-783.3839 278.9679,-724 272.8907,-716.4826 268.6793,-687.6163 272.391,-673.653"/>
<polygon fill="#000000" stroke="#000000" points="275.1046,-675.8654 278.9679,-666 269.7957,-671.3029 275.1046,-675.8654"/>
</g>
<!-- pepolar_estimate_wftopup -->
<g id="node5" class="node">
<title>pepolar_estimate_wftopup</title>
<polygon fill="none" stroke="#000000" points="295.4679,-456.5 295.4679,-617.5 624.4679,-617.5 624.4679,-456.5 295.4679,-456.5"/>
<text text-anchor="middle" x="372.4679" y="-593.8" font-family="Times,serif" font-size="14.00" fill="#000000">IN</text>
<polyline fill="none" stroke="#000000" points="295.4679,-577.5 449.4679,-577.5 "/>
<text text-anchor="middle" x="372.4679" y="-553.8" font-family="Times,serif" font-size="14.00" fill="#000000">encoding_direction</text>
<polyline fill="none" stroke="#000000" points="295.4679,-537.5 449.4679,-537.5 "/>
<text text-anchor="middle" x="372.4679" y="-513.8" font-family="Times,serif" font-size="14.00" fill="#000000">in_file</text>
<polyline fill="none" stroke="#000000" points="295.4679,-497.5 449.4679,-497.5 "/>
<text text-anchor="middle" x="372.4679" y="-473.3" font-family="Times,serif" font-size="14.00" fill="#000000">readout_times</text>
<polyline fill="none" stroke="#000000" points="449.4679,-456.5 449.4679,-617.5 "/>
<text text-anchor="middle" x="478.4679" y="-587.3" font-family="Times,serif" font-size="14.00" fill="#000000">topup</text>
<polyline fill="none" stroke="#000000" points="449.4679,-564.5 507.4679,-564.5 "/>
<text text-anchor="middle" x="478.4679" y="-533.8" font-family="Times,serif" font-size="14.00" fill="#000000">fsl</text>
<polyline fill="none" stroke="#000000" points="449.4679,-510.5 507.4679,-510.5 "/>
<text text-anchor="middle" x="478.4679" y="-479.8" font-family="Times,serif" font-size="14.00" fill="#000000"> </text>
<polyline fill="none" stroke="#000000" points="507.4679,-456.5 507.4679,-617.5 "/>
<text text-anchor="middle" x="565.9679" y="-602.3" font-family="Times,serif" font-size="14.00" fill="#000000">OUT</text>
<polyline fill="none" stroke="#000000" points="507.4679,-594.5 624.4679,-594.5 "/>
<text text-anchor="middle" x="565.9679" y="-579.3" font-family="Times,serif" font-size="14.00" fill="#000000">out_corrected</text>
<polyline fill="none" stroke="#000000" points="507.4679,-571.5 624.4679,-571.5 "/>
<text text-anchor="middle" x="565.9679" y="-556.3" font-family="Times,serif" font-size="14.00" fill="#000000">out_field</text>
<polyline fill="none" stroke="#000000" points="507.4679,-548.5 624.4679,-548.5 "/>
<text text-anchor="middle" x="565.9679" y="-533.3" font-family="Times,serif" font-size="14.00" fill="#000000">out_fieldcoef</text>
<polyline fill="none" stroke="#000000" points="507.4679,-525.5 624.4679,-525.5 "/>
<text text-anchor="middle" x="565.9679" y="-510.3" font-family="Times,serif" font-size="14.00" fill="#000000">out_jacs</text>
<polyline fill="none" stroke="#000000" points="507.4679,-502.5 624.4679,-502.5 "/>
<text text-anchor="middle" x="565.9679" y="-487.3" font-family="Times,serif" font-size="14.00" fill="#000000">out_mats</text>
<polyline fill="none" stroke="#000000" points="507.4679,-479.5 624.4679,-479.5 "/>
<text text-anchor="middle" x="565.9679" y="-464.3" font-family="Times,serif" font-size="14.00" fill="#000000">out_warps</text>
</g>
<!-- pepolar_estimate_wfflatten&#45;&gt;pepolar_estimate_wftopup -->
<g id="edge9" class="edge">
<title>pepolar_estimate_wfflatten:e&#45;&gt;pepolar_estimate_wftopup:w</title>
<path fill="none" stroke="#000000" d="M446.9679,-772C481.7548,-772 575.4855,-752.1175 595.9679,-724 614.2862,-698.8535 616.6193,-677.2685 595.9679,-654 506.5342,-553.2325 384.4017,-718.7675 294.9679,-618 280.0326,-601.1719 271.3163,-570.0264 284.9751,-560.7042"/>
<polygon fill="#000000" stroke="#000000" points="286.2295,-563.9908 294.9679,-558 284.4009,-557.2338 286.2295,-563.9908"/>
</g>
<!-- pepolar_estimate_wffix_coeff -->
<g id="node8" class="node">
<title>pepolar_estimate_wffix_coeff</title>
<polygon fill="none" stroke="#000000" points="690.9679,-327.5 690.9679,-419.5 930.9679,-419.5 930.9679,-327.5 690.9679,-327.5"/>
<text text-anchor="middle" x="730.9679" y="-404.3" font-family="Times,serif" font-size="14.00" fill="#000000">IN</text>
<polyline fill="none" stroke="#000000" points="690.9679,-396.5 770.9679,-396.5 "/>
<text text-anchor="middle" x="730.9679" y="-381.3" font-family="Times,serif" font-size="14.00" fill="#000000">fmap_ref</text>
<polyline fill="none" stroke="#000000" points="690.9679,-373.5 770.9679,-373.5 "/>
<text text-anchor="middle" x="730.9679" y="-358.3" font-family="Times,serif" font-size="14.00" fill="#000000">in_coeff</text>
<polyline fill="none" stroke="#000000" points="690.9679,-350.5 770.9679,-350.5 "/>
<text text-anchor="middle" x="730.9679" y="-335.3" font-family="Times,serif" font-size="14.00" fill="#000000">pe_dir</text>
<polyline fill="none" stroke="#000000" points="770.9679,-327.5 770.9679,-419.5 "/>
<text text-anchor="middle" x="809.4679" y="-400.8" font-family="Times,serif" font-size="14.00" fill="#000000">fix_coeff</text>
<polyline fill="none" stroke="#000000" points="770.9679,-389.5 847.9679,-389.5 "/>
<text text-anchor="middle" x="809.4679" y="-370.3" font-family="Times,serif" font-size="14.00" fill="#000000">bspline</text>
<polyline fill="none" stroke="#000000" points="770.9679,-358.5 847.9679,-358.5 "/>
<text text-anchor="middle" x="809.4679" y="-339.3" font-family="Times,serif" font-size="14.00" fill="#000000"> </text>
<polyline fill="none" stroke="#000000" points="847.9679,-327.5 847.9679,-419.5 "/>
<text text-anchor="middle" x="889.4679" y="-392.8" font-family="Times,serif" font-size="14.00" fill="#000000">OUT</text>
<polyline fill="none" stroke="#000000" points="847.9679,-373.5 930.9679,-373.5 "/>
<text text-anchor="middle" x="889.4679" y="-346.8" font-family="Times,serif" font-size="14.00" fill="#000000">out_coeff</text>
</g>
<!-- pepolar_estimate_wfflatten&#45;&gt;pepolar_estimate_wffix_coeff -->
<g id="edge5" class="edge">
<title>pepolar_estimate_wfflatten:e&#45;&gt;pepolar_estimate_wffix_coeff:w</title>
<path fill="none" stroke="#000000" d="M446.9679,-795C528.8483,-795 564.5205,-786.8781 616.9679,-724 663.9766,-667.6423 618.6508,-411.2071 680.9687,-387.2901"/>
<polygon fill="#000000" stroke="#000000" points="681.7412,-390.7075 690.9679,-385.5 680.5076,-383.8171 681.7412,-390.7075"/>
</g>
<!-- pepolar_estimate_wfflatten&#45;&gt;pepolar_estimate_wffix_coeff -->
<g id="edge7" class="edge">
<title>pepolar_estimate_wfflatten:e&#45;&gt;pepolar_estimate_wffix_coeff:w</title>
<path fill="none" stroke="#000000" d="M446.9679,-772C491.379,-772 610.9031,-756.6872 640.9679,-724 673.2682,-688.8825 651.3915,-665.2577 657.9679,-618 661.8741,-589.9309 660.1201,-383.1868 683.0319,-344.6689"/>
<polygon fill="#000000" stroke="#000000" points="685.2207,-347.4006 690.9679,-338.5 680.9247,-341.8739 685.2207,-347.4006"/>
</g>
<!-- pepolar_estimate_wfconcat_blips&#45;&gt;pepolar_estimate_wftopup -->
<g id="edge2" class="edge">
<title>pepolar_estimate_wfconcat_blips:e&#45;&gt;pepolar_estimate_wftopup:w</title>
<path fill="none" stroke="#000000" d="M260.9679,-672C268.4752,-672 281.4592,-559.6004 290.5923,-526.2318"/>
<polygon fill="#000000" stroke="#000000" points="293.8476,-527.5354 294.9679,-517 287.5221,-524.5373 293.8476,-527.5354"/>
</g>
<!-- pepolar_estimate_wfreadout_time&#45;&gt;pepolar_estimate_wftopup -->
<g id="edge14" class="edge">
<title>pepolar_estimate_wfreadout_time:e&#45;&gt;pepolar_estimate_wftopup:w</title>
<path fill="none" stroke="#000000" d="M586.9679,-672C594.9679,-672 592.2674,-659.993 586.9679,-654 500.3478,-556.0448 381.5881,-715.9552 294.9679,-618 255.8878,-573.8058 234.8502,-487.8603 284.8029,-477.9403"/>
<polygon fill="#000000" stroke="#000000" points="285.3329,-481.4063 294.9679,-477 284.688,-474.4361 285.3329,-481.4063"/>
</g>
<!-- pepolar_estimate_wfmerge_corrected -->
<g id="node6" class="node">
<title>pepolar_estimate_wfmerge_corrected</title>
<polygon fill="none" stroke="#000000" points="229.4679,-339 229.4679,-408 510.4679,-408 510.4679,-339 229.4679,-339"/>
<text text-anchor="middle" x="263.4679" y="-387.3" font-family="Times,serif" font-size="14.00" fill="#000000">IN</text>
<polyline fill="none" stroke="#000000" points="229.4679,-374 297.4679,-374 "/>
<text text-anchor="middle" x="263.4679" y="-352.8" font-family="Times,serif" font-size="14.00" fill="#000000">in_files</text>
<polyline fill="none" stroke="#000000" points="297.4679,-339 297.4679,-408 "/>
<text text-anchor="middle" x="367.4679" y="-392.8" font-family="Times,serif" font-size="14.00" fill="#000000">merge_corrected</text>
<polyline fill="none" stroke="#000000" points="297.4679,-385 437.4679,-385 "/>
<text text-anchor="middle" x="367.4679" y="-369.8" font-family="Times,serif" font-size="14.00" fill="#000000">images</text>
<polyline fill="none" stroke="#000000" points="297.4679,-362 437.4679,-362 "/>
<text text-anchor="middle" x="367.4679" y="-346.8" font-family="Times,serif" font-size="14.00" fill="#000000"> </text>
<polyline fill="none" stroke="#000000" points="437.4679,-339 437.4679,-408 "/>
<text text-anchor="middle" x="473.9679" y="-387.3" font-family="Times,serif" font-size="14.00" fill="#000000">OUT</text>
<polyline fill="none" stroke="#000000" points="437.4679,-374 510.4679,-374 "/>
<text text-anchor="middle" x="473.9679" y="-352.8" font-family="Times,serif" font-size="14.00" fill="#000000">out_avg</text>
</g>
<!-- pepolar_estimate_wftopup&#45;&gt;pepolar_estimate_wfmerge_corrected -->
<g id="edge15" class="edge">
<title>pepolar_estimate_wftopup:e&#45;&gt;pepolar_estimate_wfmerge_corrected:w</title>
<path fill="none" stroke="#000000" d="M624.9679,-583C639.0791,-583 634.333,-466.5555 624.9679,-456 566.1467,-389.7016 287.7892,-474.7984 228.9679,-408.5 216.386,-394.3186 208.8945,-368.4121 219.3658,-359.5598"/>
<polygon fill="#000000" stroke="#000000" points="220.5027,-362.8711 228.9679,-356.5 218.3773,-356.2015 220.5027,-362.8711"/>
</g>
<!-- pepolar_estimate_wftopup&#45;&gt;pepolar_estimate_wffix_coeff -->
<g id="edge17" class="edge">
<title>pepolar_estimate_wftopup:e&#45;&gt;pepolar_estimate_wffix_coeff:w</title>
<path fill="none" stroke="#000000" d="M624.9679,-537C643.2348,-537 630.3423,-472.1021 638.9679,-456 649.9534,-435.4926 665.3345,-440.1469 676.9679,-420 687.9343,-401.0084 672.34,-373.8095 681.1389,-364.6481"/>
<polygon fill="#000000" stroke="#000000" points="682.5121,-367.8835 690.9679,-361.5 680.3769,-361.2171 682.5121,-367.8835"/>
</g>
<!-- pepolar_estimate_wfoutputnode -->
<g id="node9" class="node">
<title>pepolar_estimate_wfoutputnode</title>
<polygon fill="none" stroke="#000000" points="586.9679,-.5 586.9679,-184.5 832.9679,-184.5 832.9679,-.5 586.9679,-.5"/>
<text text-anchor="middle" x="635.9679" y="-169.3" font-family="Times,serif" font-size="14.00" fill="#000000">IN</text>
<polyline fill="none" stroke="#000000" points="586.9679,-161.5 684.9679,-161.5 "/>
<text text-anchor="middle" x="635.9679" y="-146.3" font-family="Times,serif" font-size="14.00" fill="#000000">fmap</text>
<polyline fill="none" stroke="#000000" points="586.9679,-138.5 684.9679,-138.5 "/>
<text text-anchor="middle" x="635.9679" y="-123.3" font-family="Times,serif" font-size="14.00" fill="#000000">fmap_coeff</text>
<polyline fill="none" stroke="#000000" points="586.9679,-115.5 684.9679,-115.5 "/>
<text text-anchor="middle" x="635.9679" y="-100.3" font-family="Times,serif" font-size="14.00" fill="#000000">fmap_mask</text>
<polyline fill="none" stroke="#000000" points="586.9679,-92.5 684.9679,-92.5 "/>
<text text-anchor="middle" x="635.9679" y="-77.3" font-family="Times,serif" font-size="14.00" fill="#000000">fmap_ref</text>
<polyline fill="none" stroke="#000000" points="586.9679,-69.5 684.9679,-69.5 "/>
<text text-anchor="middle" x="635.9679" y="-54.3" font-family="Times,serif" font-size="14.00" fill="#000000">jacobians</text>
<polyline fill="none" stroke="#000000" points="586.9679,-46.5 684.9679,-46.5 "/>
<text text-anchor="middle" x="635.9679" y="-31.3" font-family="Times,serif" font-size="14.00" fill="#000000">out_warps</text>
<polyline fill="none" stroke="#000000" points="586.9679,-23.5 684.9679,-23.5 "/>
<text text-anchor="middle" x="635.9679" y="-8.3" font-family="Times,serif" font-size="14.00" fill="#000000">xfms</text>
<polyline fill="none" stroke="#000000" points="684.9679,-.5 684.9679,-184.5 "/>
<text text-anchor="middle" x="733.9679" y="-150.3" font-family="Times,serif" font-size="14.00" fill="#000000">outputnode</text>
<polyline fill="none" stroke="#000000" points="684.9679,-123.5 782.9679,-123.5 "/>
<text text-anchor="middle" x="733.9679" y="-89.3" font-family="Times,serif" font-size="14.00" fill="#000000">utility</text>
<polyline fill="none" stroke="#000000" points="684.9679,-62.5 782.9679,-62.5 "/>
<text text-anchor="middle" x="733.9679" y="-27.8" font-family="Times,serif" font-size="14.00" fill="#000000"> </text>
<polyline fill="none" stroke="#000000" points="782.9679,-.5 782.9679,-184.5 "/>
<text text-anchor="middle" x="807.9679" y="-88.8" font-family="Times,serif" font-size="14.00" fill="#000000">OUT</text>
</g>
<!-- pepolar_estimate_wftopup&#45;&gt;pepolar_estimate_wfoutputnode -->
<g id="edge16" class="edge">
<title>pepolar_estimate_wftopup:e&#45;&gt;pepolar_estimate_wfoutputnode:w</title>
<path fill="none" stroke="#000000" d="M624.9679,-560C648.0791,-560 635.694,-476.4713 624.9679,-456 611.9223,-431.1015 586.0136,-444.8985 572.9679,-420 546.8208,-370.0964 529.2302,-176.1038 576.9188,-152.7954"/>
<polygon fill="#000000" stroke="#000000" points="577.9985,-156.1391 586.9679,-150.5 576.4396,-149.3148 577.9985,-156.1391"/>
</g>
<!-- pepolar_estimate_wftopup&#45;&gt;pepolar_estimate_wfoutputnode -->
<g id="edge18" class="edge">
<title>pepolar_estimate_wftopup:e&#45;&gt;pepolar_estimate_wfoutputnode:w</title>
<path fill="none" stroke="#000000" d="M624.9679,-514C650.7457,-514 629.721,-481.3358 624.9679,-456 621.8026,-439.1271 614.9875,-436.6901 610.9679,-420 592.9146,-345.038 513.8122,-82.602 577.0752,-59.175"/>
<polygon fill="#000000" stroke="#000000" points="577.6926,-62.6204 586.9679,-57.5 576.524,-55.7186 577.6926,-62.6204"/>
</g>
<!-- pepolar_estimate_wftopup&#45;&gt;pepolar_estimate_wfoutputnode -->
<g id="edge19" class="edge">
<title>pepolar_estimate_wftopup:e&#45;&gt;pepolar_estimate_wfoutputnode:w</title>
<path fill="none" stroke="#000000" d="M624.9679,-491C631.4394,-491 624.7874,-426.6742 610.9679,-327 601.8208,-261.0254 525.3744,-36.9397 577.1033,-13.4892"/>
<polygon fill="#000000" stroke="#000000" points="577.8571,-16.9077 586.9679,-11.5 576.4734,-10.0458 577.8571,-16.9077"/>
</g>
<!-- pepolar_estimate_wftopup&#45;&gt;pepolar_estimate_wfoutputnode -->
<g id="edge20" class="edge">
<title>pepolar_estimate_wftopup:e&#45;&gt;pepolar_estimate_wfoutputnode:w</title>
<path fill="none" stroke="#000000" d="M624.9679,-468C638.9598,-468 635.8317,-384.1076 629.9679,-327 625.0534,-279.1366 625.2036,-265.9221 607.9679,-221 601.3326,-203.706 591.8021,-202.8813 586.9679,-185 570.5,-124.0865 525.5762,-44.1656 576.6946,-35.3075"/>
<polygon fill="#000000" stroke="#000000" points="577.273,-38.773 586.9679,-34.5 576.7244,-31.7945 577.273,-38.773"/>
</g>
<!-- pepolar_estimate_wfbrainextraction_wf -->
<g id="node7" class="node">
<title>pepolar_estimate_wfbrainextraction_wf</title>
<polygon fill="none" stroke="#000000" points="21.4679,-221.5 21.4679,-290.5 482.4679,-290.5 482.4679,-221.5 21.4679,-221.5"/>
<text text-anchor="middle" x="89.9679" y="-269.8" font-family="Times,serif" font-size="14.00" fill="#000000">IN</text>
<polyline fill="none" stroke="#000000" points="21.4679,-256.5 158.4679,-256.5 "/>
<text text-anchor="middle" x="89.9679" y="-235.3" font-family="Times,serif" font-size="14.00" fill="#000000">inputnode.in_file</text>
<polyline fill="none" stroke="#000000" points="158.4679,-221.5 158.4679,-290.5 "/>
<text text-anchor="middle" x="234.4679" y="-275.3" font-family="Times,serif" font-size="14.00" fill="#000000">brainextraction_wf</text>
<polyline fill="none" stroke="#000000" points="158.4679,-267.5 310.4679,-267.5 "/>
<text text-anchor="middle" x="234.4679" y="-252.3" font-family="Times,serif" font-size="14.00" fill="#000000"> </text>
<polyline fill="none" stroke="#000000" points="158.4679,-244.5 310.4679,-244.5 "/>
<text text-anchor="middle" x="234.4679" y="-229.3" font-family="Times,serif" font-size="14.00" fill="#000000"> </text>
<polyline fill="none" stroke="#000000" points="310.4679,-221.5 310.4679,-290.5 "/>
<text text-anchor="middle" x="396.4679" y="-269.8" font-family="Times,serif" font-size="14.00" fill="#000000">OUT</text>
<polyline fill="none" stroke="#000000" points="310.4679,-256.5 482.4679,-256.5 "/>
<text text-anchor="middle" x="396.4679" y="-235.3" font-family="Times,serif" font-size="14.00" fill="#000000">outputnode.out_mask</text>
</g>
<!-- pepolar_estimate_wfmerge_corrected&#45;&gt;pepolar_estimate_wfbrainextraction_wf -->
<g id="edge12" class="edge">
<title>pepolar_estimate_wfmerge_corrected:e&#45;&gt;pepolar_estimate_wfbrainextraction_wf:w</title>
<path fill="none" stroke="#000000" d="M510.9679,-356.5C518.9679,-356.5 516.345,-344.4235 510.9679,-338.5 437.4375,-257.497 94.4983,-372.003 20.9679,-291 8.2255,-276.9626 .8369,-250.9639 11.3503,-242.0738"/>
<polygon fill="#000000" stroke="#000000" points="12.5081,-245.3782 20.9679,-239 10.3771,-238.7105 12.5081,-245.3782"/>
</g>
<!-- pepolar_estimate_wfmerge_corrected&#45;&gt;pepolar_estimate_wfoutputnode -->
<g id="edge13" class="edge">
<title>pepolar_estimate_wfmerge_corrected:e&#45;&gt;pepolar_estimate_wfoutputnode:w</title>
<path fill="none" stroke="#000000" d="M510.9679,-356.5C541.5477,-356.5 526.9621,-250.5132 534.9679,-221 551.4465,-160.2526 523.7378,-88.8027 576.9044,-81.1696"/>
<polygon fill="#000000" stroke="#000000" points="577.2224,-84.6563 586.9679,-80.5 576.7576,-77.6717 577.2224,-84.6563"/>
</g>
<!-- pepolar_estimate_wfbrainextraction_wf&#45;&gt;pepolar_estimate_wfoutputnode -->
<g id="edge1" class="edge">
<title>pepolar_estimate_wfbrainextraction_wf:e&#45;&gt;pepolar_estimate_wfoutputnode:w</title>
<path fill="none" stroke="#000000" d="M482.9679,-239C483.2193,-239 558.245,-141.4662 580.695,-112.5108"/>
<polygon fill="#000000" stroke="#000000" points="583.5583,-114.5312 586.9679,-104.5 578.047,-110.2155 583.5583,-114.5312"/>
</g>
<!-- pepolar_estimate_wffix_coeff&#45;&gt;pepolar_estimate_wfoutputnode -->
<g id="edge3" class="edge">
<title>pepolar_estimate_wffix_coeff:e&#45;&gt;pepolar_estimate_wfoutputnode:w</title>
<path fill="none" stroke="#000000" d="M930.9679,-350.5C941.4124,-350.5 936.7591,-335.6919 930.9679,-327 863.1428,-225.2006 790.2034,-267.272 676.9679,-221 637.0878,-204.7036 611.1206,-220.6742 586.9679,-185 574.9913,-167.3101 565.1801,-139.015 577.2114,-130.2068"/>
<polygon fill="#000000" stroke="#000000" points="578.2676,-133.546 586.9679,-127.5 576.3962,-126.8008 578.2676,-133.546"/>
</g>
</g>
</svg>
